<svg height="480pt" viewBox="0 0 480 480" width="480pt" xmlns="http://www.w3.org/2000/svg"><path d="m80 8h320c13.253906 0 24 10.746094 24 24v416c0 13.253906-10.746094 24-24 24h-320c-13.253906 0-24-10.746094-24-24v-416c0-13.253906 10.746094-24 24-24zm0 0" fill="#4398d1"/><path d="m400 472h-368c-13.253906 0-24-10.746094-24-24v-24h368v24c0 13.253906 10.746094 24 24 24zm0 0" fill="#53abe6"/><path d="m264 56h208v144h-208zm0 0" fill="#87ced9"/><path d="m472 176-48-32-40 24-56-32-64 40v24h208zm0 0" fill="#126099"/><path d="m408 108c0 11.046875-8.953125 20-20 20s-20-8.953125-20-20 8.953125-20 20-20 20 8.953125 20 20zm0 0" fill="#e3584b"/><path d="m8 136h224v128h-224zm0 0" fill="#87ced9"/><g fill="#3181bd"><path d="m80 32h16v16h-16zm0 0"/><path d="m112 32h16v16h-16zm0 0"/><path d="m144 32h16v16h-16zm0 0"/><path d="m80 64h160v16h-160zm0 0"/><path d="m256 232h96v16h-96zm0 0"/><path d="m368 232h32v16h-32zm0 0"/><path d="m256 264h72v16h-72zm0 0"/><path d="m344 264h56v16h-56zm0 0"/><path d="m80 96h96v16h-96zm0 0"/><path d="m192 96h48v16h-48zm0 0"/><path d="m80 288h72v16h-72zm0 0"/><path d="m80 320h32v16h-32zm0 0"/><path d="m80 352h32v16h-32zm0 0"/><path d="m80 384h64v16h-64zm0 0"/><path d="m32 160h32v16h-32zm0 0"/><path d="m80 160h128v16h-128zm0 0"/><path d="m32 192h104v16h-104zm0 0"/><path d="m152 192h56v16h-56zm0 0"/><path d="m32 224h136v16h-136zm0 0"/></g><path d="m232 160v104h-176v16h192v-120zm0 0" fill="#3e8cc7"/><path d="m280 200h144v16h-144zm0 0" fill="#3e8cc7"/><path d="m424 392h-232l-40-40 272-8zm0 0" fill="#3e8cc7"/><path d="m184 344h208v32h-208zm0 0" fill="#d64740"/><path d="m184 312h208v32h-208zm0 0" fill="#e3584b"/><path d="m392 312v64h32v-64zm0 0" fill="#d6d9db"/><path d="m392 344v32h32v-32zm0 0" fill="#c7cacc"/><path d="m440 312h-16v64h16c17.671875 0 32-14.328125 32-32s-14.328125-32-32-32zm0 0" fill="#4398d1"/><path d="m136 344 24 16v-32zm0 0" fill="#126099"/><path d="m160 328v32l24 16v-64zm0 0" fill="#ffc24f"/><path d="m80 32h16v16h-16zm0 0"/><path d="m112 32h16v16h-16zm0 0"/><path d="m144 32h16v16h-16zm0 0"/><path d="m80 64h160v16h-160zm0 0"/><path d="m416 32h16c0-17.671875-14.328125-32-32-32h-320c-17.671875 0-32 14.328125-32 32v80h16v-80c0-8.835938 7.164062-16 16-16h320c8.835938 0 16 7.164062 16 16zm0 0"/><path d="m416 224h16v64h-16zm0 0"/><path d="m32 480h368c17.671875 0 32-14.328125 32-32v-48h-16v48c0 8.835938-7.164062 16-16 16s-16-7.164062-16-16v-24c0-4.417969-3.582031-8-8-8h-312v-128h-16v128h-40c-4.417969 0-8 3.582031-8 8v24c0 17.671875 14.328125 32 32 32zm-16-48h352v16c-.007812 5.621094 1.472656 11.140625 4.296875 16h-340.296875c-8.835938 0-16-7.164062-16-16zm0 0"/><path d="m440 304h-256c-1.578125.003906-3.125.46875-4.441406 1.34375l-48 32c-2.222656 1.484375-3.558594 3.980469-3.558594 6.65625s1.335938 5.171875 3.558594 6.65625l48 32c1.316406.875 2.863281 1.339844 4.441406 1.34375h256c22.089844 0 40-17.910156 40-40s-17.910156-40-40-40zm-56 32h-192v-16h192zm-192 16h192v16h-192zm208-32h16v48h-16zm-224 6.945312v34.109376l-25.601562-17.054688zm264 41.054688h-8v-48h8c13.253906 0 24 10.746094 24 24s-10.746094 24-24 24zm0 0"/><path d="m472 48h-208c-4.417969 0-8 3.582031-8 8v144c0 4.417969 3.582031 8 8 8h208c4.417969 0 8-3.582031 8-8v-144c0-4.417969-3.582031-8-8-8zm-8 16v97.054688l-35.558594-23.710938c-2.574218-1.714844-5.910156-1.792969-8.5625-.199219l-36 21.597657-51.878906-29.6875c-2.558594-1.460938-5.710938-1.398438-8.207031.160156l-51.792969 32.386718v-97.601562zm0 128h-192v-11.558594l56.183594-35.121094 51.847656 29.601563c2.515625 1.433594 5.605469 1.402344 8.089844-.089844l35.65625-21.390625 40.222656 26.839844zm0 0"/><path d="m388 136c15.464844 0 28-12.535156 28-28s-12.535156-28-28-28-28 12.535156-28 28 12.535156 28 28 28zm0-40c6.628906 0 12 5.371094 12 12s-5.371094 12-12 12-12-5.371094-12-12 5.371094-12 12-12zm0 0"/><path d="m8 272h224c4.417969 0 8-3.582031 8-8v-128c0-4.417969-3.582031-8-8-8h-224c-4.417969 0-8 3.582031-8 8v128c0 4.417969 3.582031 8 8 8zm8-128h208v112h-208zm0 0"/><path d="m32 160h32v16h-32zm0 0"/><path d="m80 160h128v16h-128zm0 0"/><path d="m32 192h104v16h-104zm0 0"/><path d="m152 192h56v16h-56zm0 0"/><path d="m32 224h136v16h-136zm0 0"/><path d="m256 232h96v16h-96zm0 0"/><path d="m368 232h32v16h-32zm0 0"/><path d="m256 264h72v16h-72zm0 0"/><path d="m344 264h56v16h-56zm0 0"/><path d="m80 96h96v16h-96zm0 0"/><path d="m192 96h48v16h-48zm0 0"/><path d="m80 288h72v16h-72zm0 0"/><path d="m80 320h32v16h-32zm0 0"/><path d="m80 352h32v16h-32zm0 0"/><path d="m80 384h64v16h-64zm0 0"/></svg>