<svg height="480pt" viewBox="0 0 480.00542 480" width="480pt" xmlns="http://www.w3.org/2000/svg"><path d="m32 144.003906h352v288h-352zm0 0" fill="#c3c5c7"/><path d="m8 56.003906h400v88h-400zm0 0" fill="#e3584b"/><path d="m32 8.003906h40v48h-40zm0 0" fill="#d1d4d6"/><path d="m208 472.003906h-176v-328l88-88 88 88zm0 0" fill="#d1d4d6"/><path d="m8 256.003906h400v64h-400zm0 0" fill="#e3584b"/><path d="m8 432.003906h200v40h-200zm0 0" fill="#d1d4d6"/><path d="m64 176.003906h32v48h-32zm0 0" fill="#a3603e"/><path d="m96 176.003906h48v48h-48zm0 0" fill="#4398d1"/><path d="m144 176.003906h32v48h-32zm0 0" fill="#a3603e"/><path d="m96 176.003906h48v16h-48zm0 0" fill="#3e8cc7"/><path d="m208 432.003906h208v40h-208zm0 0" fill="#d1d4d6"/><path d="m240 352.003906h32v80h-32zm0 0" fill="#a3603e"/><path d="m272 352.003906h48v80h-48zm0 0" fill="#4398d1"/><path d="m320 352.003906h32v80h-32zm0 0" fill="#a3603e"/><path d="m272 352.003906h48v16h-48zm0 0" fill="#3e8cc7"/><g fill="#c9473a"><path d="m232 88.003906h32v16h-32zm0 0"/><path d="m264 104.003906h32v16h-32zm0 0"/><path d="m328 88.003906h32v16h-32zm0 0"/></g><path d="m136 128.003906c0 8.835938-7.164062 16-16 16s-16-7.164062-16-16c0-8.835937 7.164062-16 16-16s16 7.164063 16 16zm0 0" fill="#4398d1"/><path d="m72 280.003906h32v16h-32zm0 0" fill="#c9473a"/><path d="m344 280.003906h32v16h-32zm0 0" fill="#c9473a"/><path d="m280 280.003906h32v16h-32zm0 0" fill="#c9473a"/><path d="m240 176.003906h32v48h-32zm0 0" fill="#a3603e"/><path d="m272 176.003906h48v48h-48zm0 0" fill="#4398d1"/><path d="m320 176.003906h32v48h-32zm0 0" fill="#a3603e"/><path d="m272 176.003906h48v16h-48zm0 0" fill="#3e8cc7"/><path d="m64 352.003906h32v48h-32zm0 0" fill="#a3603e"/><path d="m96 352.003906h48v48h-48zm0 0" fill="#4398d1"/><path d="m144 352.003906h32v48h-32zm0 0" fill="#a3603e"/><path d="m96 352.003906h48v16h-48zm0 0" fill="#3e8cc7"/><path d="m151.574219 428.210938c.265625-1.386719.40625-2.796876.425781-4.207032.019531-9.515625-5.605469-18.136718-14.320312-21.957031-8.714844-3.816406-18.863282-2.105469-25.847657 4.355469-.796875-12.574219-11.230469-22.367188-23.832031-22.367188s-23.035156 9.792969-23.832031 22.367188c-6.984375-6.460938-17.132813-8.171875-25.847657-4.355469-8.714843 3.820313-14.339843 12.441406-14.320312 21.957031.019531 1.410156.160156 2.820313.425781 4.207032-10.109375 5.601562-16.394531 16.234374-16.425781 27.792968v16h160v-16c-.03125-11.558594-6.316406-22.191406-16.425781-27.792968zm0 0" fill="#88b337"/><path d="m208 144.003906h176v16h-176zm0 0" fill="#b1b3b5"/><path d="m208 320.003906h176v16h-176zm0 0" fill="#b1b3b5"/><path d="m32 320.003906h176v16h-176zm0 0" fill="#c3c5c7"/><path d="m446.6875 290.113281c3.945312-15.015625-1.160156-30.960937-13.089844-40.894531-11.933594-9.9375-28.535156-12.070312-42.589844-5.476562-14.058593 6.597656-23.027343 20.734374-23.007812 36.261718-.007812 3.894532.566406 7.769532 1.703125 11.496094 4.171875 15.066406.3125 31.222656-10.222656 42.773438-22.339844 25.976562-20.261719 64.9375 4.714843 88.390624 24.976563 23.449219 63.988282 23.074219 88.507813-.855468 24.519531-23.929688 25.84375-62.921875 3.007813-88.460938-10.0625-11.988281-13.449219-28.21875-9.023438-43.234375zm0 0" fill="#88b337"/><path d="m400 312.003906h16v160h-16zm0 0" fill="#a3603e"/><path d="m56 8.003906h16v48h-16zm0 0" fill="#c3c5c7"/><path d="m64 232.003906h112c4.417969 0 8-3.582031 8-8v-48c0-4.417968-3.582031-8-8-8h-112c-4.417969 0-8 3.582032-8 8v48c0 4.417969 3.582031 8 8 8zm88-48h16v32h-16zm-48 0h32v32h-32zm-32 0h16v32h-16zm0 0"/><path d="m240 232.003906h112c4.417969 0 8-3.582031 8-8v-48c0-4.417968-3.582031-8-8-8h-112c-4.417969 0-8 3.582032-8 8v48c0 4.417969 3.582031 8 8 8zm88-48h16v32h-16zm-48 0h32v32h-32zm-32 0h16v32h-16zm0 0"/><path d="m232 88.003906h32v16h-32zm0 0"/><path d="m264 104.003906h32v16h-32zm0 0"/><path d="m328 88.003906h32v16h-32zm0 0"/><path d="m72 280.003906h32v16h-32zm0 0"/><path d="m120 152.003906c13.253906 0 24-10.746094 24-24 0-13.257812-10.746094-24-24-24s-24 10.742188-24 24c0 13.253906 10.746094 24 24 24zm0-32c4.417969 0 8 3.582032 8 8 0 4.417969-3.582031 8-8 8s-8-3.582031-8-8c0-4.417968 3.582031-8 8-8zm0 0"/><path d="m280 280.003906h32v16h-32zm0 0"/><path d="m454.398438 292.164062c3.335937-12.640624 1.367187-26.09375-5.453126-37.246093-6.816406-11.152344-17.890624-19.039063-30.65625-21.835938-8.761718-1.863281-17.863281-1.28125-26.3125 1.679688v-82.757813h16c4.417969 0 8-3.582031 8-8v-88c0-4.417968-3.582031-8-8-8h-327.976562v-40c0-4.417968-3.582031-7.99999975-8-7.99999975h-40c-4.417969 0-8 3.58203175-8 7.99999975v40h-16c-4.417969 0-8 3.582032-8 8v88c0 4.417969 3.582031 8 8 8h16v96h-16c-4.417969 0-8 3.582032-8 8v64c0 4.417969 3.582031 8 8 8h16v75.054688c-5.125 5.773437-7.972656 13.222656-8 20.945312h-8c-4.417969 0-8 3.582032-8 8v40c0 4.417969 3.582031 8 8 8h408v-32.527344c26.773438-2.972656 49.644531-20.652343 59.261719-45.8125 9.621093-25.160156 4.375-53.589843-13.589844-73.660156-8.292969-9.964844-11.027344-23.429687-7.273437-35.839844zm-54.398438-228.160156v72h-188.6875l-72-72zm-24 88v92.320313c-1.296875 1.15625-2.527344 2.382812-3.6875 3.679687h-156.3125v-96zm-176-4.6875v100.6875h-160v-100.6875l80-80zm-160-131.3125h24v32h-24zm-24 120v-72h84.6875l-72 72zm0 176v-48h346.742188c-1.816407 5.136719-2.742188 10.546875-2.742188 16h-16v16h18.550781c1.207031 5.269532 1.152344 10.753906-.160156 16zm144 152h-144v-8c.066406-8.652344 4.78125-16.597656 12.34375-20.800781 2.984375-1.65625 4.59375-5.023437 4-8.382813-.203125-.925781-.316406-1.871093-.34375-2.816406-.03125-6.347656 3.710938-12.109375 9.527344-14.65625 5.8125-2.550781 12.582031-1.402344 17.234375 2.917969 2.265625 2.074219 5.519531 2.671875 8.371093 1.527344 2.851563-1.140625 4.800782-3.8125 5.011719-6.878907.53125-8.367187 7.472657-14.878906 15.855469-14.878906s15.324219 6.511719 15.855469 14.878906c.210937 3.066407 2.160156 5.738282 5.011719 6.878907 2.851562 1.144531 6.105468.546875 8.371093-1.527344 4.652344-4.320313 11.421875-5.46875 17.234375-2.917969 5.816406 2.546875 9.558594 8.308594 9.527344 14.65625-.015625.9375-.117188 1.871094-.304688 2.789063-.589843 3.363281 1.015626 6.730469 4 8.386719 7.554688 4.214843 12.257813 12.171874 12.304688 20.824218zm-88-83.578125v-20.421875h16v16c-5.632812.015625-11.160156 1.542969-16 4.421875zm32 0v-20.421875h32v33.136719c-6.363281-1.796875-13.140625-1.460937-19.296875.957031-2.792969-5.710937-7.210937-10.46875-12.703125-13.671875zm48 11.578125v-32h16v32zm8 32c-.03125-5.636718-1.570312-11.160156-4.449219-16h20.449219c4.417969 0 8-3.582031 8-8v-48c0-4.417968-3.582031-8-8-8h-112c-4.417969 0-8 3.582032-8 8v41.160156c-2.605469-.726562-5.292969-1.117187-8-1.160156-2.703125.03125-5.394531.414063-8 1.136719v-65.136719h160v96zm72 40h-56v-8c-.023438-5.519531-1.207031-10.96875-3.472656-16h59.472656zm112 0h-96v-24h96zm-96-40v-64h16v64zm32 0v-64h32v64zm64 0h-16v-64h9.902344c-2.25 9.851563-2.445313 20.066406-.574219 30 1.285156 6.660156 3.535156 13.097656 6.671875 19.109375zm-.425781-80h-103.574219c-4.417969 0-8 3.582032-8 8v72h-16v-96h138.222656c-.277344.34375-.519531.710938-.796875 1.054688-3.898437 4.546875-7.207031 9.570312-9.851562 14.945312zm56.425781 120h-40v-34.402344c9.453125 8.609376 21.066406 14.488282 33.601562 17.015626 2.117188.417968 4.246094.707031 6.398438.929687zm43.601562-44.800781c-7.910156 6.515625-17.457031 10.726563-27.601562 12.175781v-119.375h-16v119.359375c-1.105469-.152343-2.207031-.25-3.3125-.464843-22.101562-4.421876-39.339844-21.753907-43.640625-43.878907-3.328125-16.917969 1.273437-34.425781 12.488281-47.519531 12.335938-13.632812 16.796875-32.644531 11.816406-50.335938-.898437-2.972656-1.355468-6.058593-1.351562-9.160156-.015625-9.652344 4.339844-18.792968 11.847656-24.855468 5.664063-4.640626 12.765625-7.167969 20.089844-7.144532 2.378906.003906 4.753906.253906 7.085938.742188 12.335937 2.714844 21.898437 12.46875 24.359374 24.855468.949219 4.773438.804688 9.695313-.421874 14.402344-5.160157 17.613282-1.105469 36.640625 10.792968 50.613282 10.167969 11.371093 15.261719 26.394531 14.101563 41.605468-1.160157 15.210938-8.476563 29.289063-20.253907 38.980469zm0 0"/></svg>