<svg height="512" viewBox="0 0 512 512" width="512" xmlns="http://www.w3.org/2000/svg"><g id="Filled_outline" data-name="Filled outline"><g fill="#f98500"><path d="m196.709 169.072-10.85-22.7a77.084 77.084 0 0 1 -7.373-28.206 77.079 77.079 0 0 0 -21.456-48.488l-15.53-16.089 40.823 22.547a48.036 48.036 0 0 1 23.848 32.464 48.038 48.038 0 0 0 8.636 19.227l17.99 23.995z"/><path d="m315.291 342.928 10.85 22.7a77.084 77.084 0 0 1 7.373 28.206 77.079 77.079 0 0 0 21.456 48.492l15.53 16.085-40.823-22.547a48.036 48.036 0 0 1 -23.848-32.464 48.038 48.038 0 0 0 -8.636-19.227l-17.99-24z"/><path d="m169.072 315.291-22.7 10.85a77.084 77.084 0 0 1 -28.206 7.373 77.079 77.079 0 0 0 -48.488 21.456l-16.089 15.53 22.547-40.823a48.036 48.036 0 0 1 32.464-23.848 48.038 48.038 0 0 0 19.227-8.636l23.995-17.99z"/><path d="m342.928 196.709 22.7-10.85a77.084 77.084 0 0 1 28.206-7.373 77.079 77.079 0 0 0 48.492-21.456l16.085-15.53-22.547 40.823a48.036 48.036 0 0 1 -32.464 23.848 48.038 48.038 0 0 0 -19.227 8.636l-24 17.99z"/><path d="m152.607 236.457-23.719-8.376a77.08 77.08 0 0 1 -25.159-14.731 77.087 77.087 0 0 0 -49.461-19.118l-22.357-.4 44.81-12.924a48.036 48.036 0 0 1 39.815 6.092 48.038 48.038 0 0 0 19.7 7.489l29.688 4.246z"/><path d="m359.393 275.543 23.719 8.376a77.08 77.08 0 0 1 25.159 14.731 77.087 77.087 0 0 0 49.461 19.118l22.357.4-44.81 12.924a48.036 48.036 0 0 1 -39.815-6.092 48.038 48.038 0 0 0 -19.7-7.489l-29.688-4.246z"/><path d="m236.457 359.393-8.376 23.719a77.08 77.08 0 0 1 -14.731 25.159 77.087 77.087 0 0 0 -19.118 49.461l-.4 22.357-12.924-44.81a48.036 48.036 0 0 1 6.092-39.815 48.038 48.038 0 0 0 7.489-19.7l4.246-29.688z"/><path d="m275.543 152.607 8.376-23.719a77.08 77.08 0 0 1 14.731-25.159 77.087 77.087 0 0 0 19.118-49.461l.4-22.357 12.924 44.81a48.036 48.036 0 0 1 -6.092 39.815 48.038 48.038 0 0 0 -7.489 19.7l-4.246 29.688z"/></g><path d="m199.43 154.18-22.62 22.63-5.77 5.76-16.86 16.86-25.46-25.45a60.023 60.023 0 0 1 -16.97-33.95 60.257 60.257 0 0 0 -5.73-18.35 61.419 61.419 0 0 0 -4.45-7.48 60.178 60.178 0 0 0 -6.79-8.11l-8.49-8.48 29.79 5.95 8.1 1.62a43.086 43.086 0 0 1 28.49 20.08 43.052 43.052 0 0 0 19.97 17.43z" fill="#fcac1e"/><path d="m425.71 414.39-29.87-5.97-8.02-1.6a43.086 43.086 0 0 1 -28.49-20.08 43.052 43.052 0 0 0 -19.97-17.43l-26.79-11.49 22.63-22.62 5.76-5.77 16.86-16.86 25.46 25.45a60.023 60.023 0 0 1 16.97 33.95 60.043 60.043 0 0 0 16.97 33.94z" fill="#fcac1e"/><path d="m414.39 86.29-5.97 29.86-1.6 8.03a43.086 43.086 0 0 1 -20.08 28.49 43.052 43.052 0 0 0 -17.43 19.97l-11.49 26.79-45.25-45.25 25.45-25.46a60.023 60.023 0 0 1 33.95-16.97 59.821 59.821 0 0 0 25.97-10.28 59.6 59.6 0 0 0 7.97-6.69z" fill="#fcac1e"/><path d="m199.43 357.82-25.45 25.46a60.023 60.023 0 0 1 -33.95 16.97 60.257 60.257 0 0 0 -18.35 5.73 60.37 60.37 0 0 0 -15.59 11.24l-8.48 8.49 5.92-29.63 1.65-8.26a43.086 43.086 0 0 1 20.08-28.49 43.052 43.052 0 0 0 17.43-19.97l11.49-26.79 22.63 22.63 5.76 5.76z" fill="#fcac1e"/><path d="m288 144h-64v-36a60.01 60.01 0 0 1 12-36 59.8 59.8 0 0 0 8.92-17.03 61 61 0 0 0 2.07-8 59.938 59.938 0 0 0 1.01-10.97v-12l16.77 25.15 4.66 6.99a43.115 43.115 0 0 1 5.95 34.35 43.017 43.017 0 0 0 1.79 26.44z" fill="#fcac1e"/><path d="m288 368v36a60.01 60.01 0 0 1 -12 36 59.938 59.938 0 0 0 -12 36v12l-16.85-25.27-4.58-6.87a43.115 43.115 0 0 1 -5.95-34.35 43.017 43.017 0 0 0 -1.79-26.44l-10.83-27.07z" fill="#fcac1e"/><path d="m488 248-25.28 16.86-6.86 4.57a43.115 43.115 0 0 1 -34.35 5.95 43.017 43.017 0 0 0 -26.44 1.79l-27.07 10.83v-64h36a60.01 60.01 0 0 1 36 12 60.013 60.013 0 0 0 36 12z" fill="#fcac1e"/><path d="m144 224v64h-36a60.01 60.01 0 0 1 -36-12 59.978 59.978 0 0 0 -36-12h-12l25.26-16.84 6.88-4.59a43.115 43.115 0 0 1 34.35-5.95 43.017 43.017 0 0 0 26.44-1.79z" fill="#fcac1e"/><circle cx="256" cy="256" fill="#ffba40" r="128"/><path d="m495.657 245.682a8 8 0 0 0 -7.657-5.682c-14.011 0-28.476-1.078-40.761-8.482-14.039-8.458-26.097-15.518-43.239-15.518h-5.692a40.077 40.077 0 0 1 6.692-1.991 55.911 55.911 0 0 0 37.865-27.821l22.551-40.82a8 8 0 0 0 -12.558-9.624c-17.119 16.517-34.121 33.086-59.547 34.763-2.8.183-5.624.51-8.39.968l2.618 15.785c2.247-.373 4.541-.638 6.821-.787a85.021 85.021 0 0 0 28.869-7.1q3.631-1.613 7.078-3.539l-1.45 2.624a39.943 39.943 0 0 1 -27.057 19.873 55.288 55.288 0 0 0 -19.239 7.879 135.6 135.6 0 0 0 -10.16-20.477l4.263-9.946a35.066 35.066 0 0 1 14.193-16.259 51.194 51.194 0 0 0 23.807-33.781l7.57-37.89a8 8 0 0 0 -13.5-7.22l-8.477 8.486a52.35 52.35 0 0 1 -29.416 14.708 68.461 68.461 0 0 0 -38.476 19.233l-4.008 4.012a39.871 39.871 0 0 1 3.321-6.125 55.979 55.979 0 0 0 7.1-46.449l-12.929-44.81a8 8 0 0 0 -15.685 2.078c-.415 23.793-.691 47.5-17.524 66.682a84.81 84.81 0 0 0 -9.086 12.492c.7-1.175-1.532-8.608-1.48-10.543.489-18.093 5.1-32.082-5.986-48.7l-21.43-32.139a8 8 0 0 0 -14.658 4.438v12a52.306 52.306 0 0 1 -10.4 31.2 68.437 68.437 0 0 0 -13.6 40.8v5.692a40.106 40.106 0 0 1 -1.991-6.69 55.926 55.926 0 0 0 -27.821-37.865l-40.82-22.55a8 8 0 0 0 -9.624 12.558c16.556 17.155 33.079 34.047 34.763 59.546a85.037 85.037 0 0 0 2.406 15.241 34.733 34.733 0 0 1 -6.375-4.411c-6.582-5.742-10.019-14.064-16.516-19.943a51.333 51.333 0 0 0 -24.274-12.243l-37.891-7.569a8 8 0 0 0 -7.22 13.5l8.486 8.476c18.721 18.7 14.453 48.383 33.924 67.874 0 0 10.775-10.675 11.454-11.346-6.693-5.4-10.449-13.645-12.861-21.9s-3.724-16.835-6.737-24.89c5.121 2.4 8.823 7.089 11.507 12.066s4.533 10.364 7.119 15.393a58.852 58.852 0 0 0 17.39 20.412l-11.093 15.757a3.8 3.8 0 0 1 -1.575 1.5 3.7 3.7 0 0 1 -2.248-.094c-9.9-2.584-17.626-8.8-27.054-12.213a56.149 56.149 0 0 0 -34.449-1.077l-44.81 12.929a8 8 0 0 0 2.079 15.686c24.047.42 47.618.8 66.681 17.522a84.744 84.744 0 0 0 12.492 9.087 34.9 34.9 0 0 1 -10 1.462c-18.51 0-32.19-5.357-49.238 6l-32.14 21.43a8 8 0 0 0 4.436 14.66h12c26.446 0 44.442 24 72 24h5.692a40.077 40.077 0 0 1 -6.692 1.991 55.911 55.911 0 0 0 -37.865 27.821l-22.551 40.82a8 8 0 0 0 12.559 9.624l16.089-15.529a69.1 69.1 0 0 1 43.468-19.235l-1.054-15.965a85.021 85.021 0 0 0 -28.869 7.1q-3.632 1.613-7.078 3.539l1.45-2.624a39.943 39.943 0 0 1 27.051-19.873 55.288 55.288 0 0 0 19.239-7.879 135.532 135.532 0 0 0 10.161 20.479l-4.265 9.944a35.066 35.066 0 0 1 -14.193 16.259 51.194 51.194 0 0 0 -23.807 33.781l-7.57 37.89a8 8 0 0 0 13.5 7.22l8.477-8.486a52.319 52.319 0 0 1 29.416-14.708 68.461 68.461 0 0 0 38.476-19.233l4.008-4.012a39.917 39.917 0 0 1 -3.321 6.125 55.979 55.979 0 0 0 -7.1 46.449l12.929 44.81a8 8 0 0 0 7.68 5.783 8.232 8.232 0 0 0 1.058-.07 8 8 0 0 0 6.947-7.792l.391-22.349a69.161 69.161 0 0 1 17.133-44.332 84.81 84.81 0 0 0 9.086-12.492 34.96 34.96 0 0 1 .41 18.516 51.229 51.229 0 0 0 7.056 40.727l21.43 32.139a8 8 0 0 0 14.659-4.438c0-13.648.782-27.829 8.25-40.1 7.445-12.234 14.068-22.808 15.452-37.54l-15.93-1.5a52 52 0 0 1 -10.172 26.34 67.763 67.763 0 0 0 -9.031 16.314 39.312 39.312 0 0 1 3.336-25.436 55.5 55.5 0 0 0 4.911-34.686 135.234 135.234 0 0 0 21.039-3.658l.935 1.245a39.914 39.914 0 0 1 7.2 16.019 55.926 55.926 0 0 0 27.821 37.865l40.82 22.55a8 8 0 0 0 9.628-12.555c-16.411-17.025-33.127-34.71-34.767-59.549a84.948 84.948 0 0 0 -2.406-15.241 34.642 34.642 0 0 1 6.374 4.411 35.019 35.019 0 0 1 7.01 8.379 51.193 51.193 0 0 0 33.781 23.807l37.891 7.569a7.907 7.907 0 0 0 1.569.157 8 8 0 0 0 5.651-13.662l-8.486-8.476c-7.983-7.983-12.94-18.7-15.224-29.666-.634-3.045-9.282-32.786-12.179-30.646l-12.854 9.53a52.212 52.212 0 0 1 9.711 23.632 68.087 68.087 0 0 0 5.148 17.914 39.139 39.139 0 0 1 -15.629-20.344 55.5 55.5 0 0 0 -21.1-28.034 136.711 136.711 0 0 0 12.283-17.439l1.6.229c17.115 2.44 28.988 15.548 47.313 15.547a56.089 56.089 0 0 0 15.55-2.2l44.81-12.929a8 8 0 0 0 -2.078-15.686c-23.524-.413-47.737-.9-66.682-17.522a84.744 84.744 0 0 0 -12.492-9.087 34.96 34.96 0 0 1 18.516-.41 51.223 51.223 0 0 0 40.726-7.056l32.14-21.43a8 8 0 0 0 3.222-8.974zm-113.035-99.87a51.062 51.062 0 0 0 -20.665 23.675l-.38.888q-3.394-4.176-7.1-8.078l1.006-1.508a39.433 39.433 0 0 1 20.245-15.46 55.03 55.03 0 0 0 17.924-10.009 35.129 35.129 0 0 1 -11.03 10.492zm-38.945-11.435a52.365 52.365 0 0 1 29.423-14.708 68.092 68.092 0 0 0 17.914-5.148 39.131 39.131 0 0 1 -20.345 15.628 55.507 55.507 0 0 0 -28.035 21.1q-4.345-3.6-8.99-6.835zm-39.013-25.37a84.651 84.651 0 0 0 15.387-25.422q1.439-3.718 2.519-7.536l.833 2.889a39.994 39.994 0 0 1 -5.073 33.185 55.442 55.442 0 0 0 -8.049 19.192 135.022 135.022 0 0 0 -16.312-5.914 68.527 68.527 0 0 1 10.695-16.394zm-42.264-15.929a55.482 55.482 0 0 0 5.582-19.8 35.133 35.133 0 0 1 -.368 15.274 51.011 51.011 0 0 0 2.124 31.352l.329.823q-5.3-.547-10.7-.682l-.344-1.723a39.425 39.425 0 0 1 3.377-25.244zm-30.4 14.922a52.339 52.339 0 0 1 10.4-31.2 67.763 67.763 0 0 0 9.031-16.314 39.312 39.312 0 0 1 -3.331 25.436 55.5 55.5 0 0 0 -4.911 34.686q-5.661.532-11.184 1.513zm-53.544-24.855a39.955 39.955 0 0 1 19.876 27.055 55.237 55.237 0 0 0 7.878 19.24 135.368 135.368 0 0 0 -15.7 7.4 68.728 68.728 0 0 1 -4.041-19.195 85.038 85.038 0 0 0 -7.1-28.87q-1.613-3.631-3.539-7.077zm-33.126 53.125a55.013 55.013 0 0 0 -10.011-17.925 35.139 35.139 0 0 1 10.493 11.034 51.051 51.051 0 0 0 23.676 20.664l.887.38q-4.176 3.393-8.078 7.1l-1.507-1.006a39.429 39.429 0 0 1 -15.46-20.247zm-56.781 108.111a51.022 51.022 0 0 0 31.353-2.123l.823-.329q-.547 5.293-.682 10.7l-1.721.345a39.431 39.431 0 0 1 -25.245-3.374 55.483 55.483 0 0 0 -19.8-5.582 35.124 35.124 0 0 1 15.272.363zm19.451 35.619a52.34 52.34 0 0 1 -31.2-10.4 67.707 67.707 0 0 0 -16.313-9.032 39.309 39.309 0 0 1 25.435 3.332 55.506 55.506 0 0 0 34.686 4.911q.532 5.661 1.513 11.184zm17.4-61.969a68.552 68.552 0 0 1 -16.395-10.695 84.641 84.641 0 0 0 -25.421-15.388q-3.718-1.437-7.536-2.517l2.888-.834a40.006 40.006 0 0 1 33.186 5.073 55.462 55.462 0 0 0 19.192 8.049 135.022 135.022 0 0 0 -5.914 16.312zm3.977 148.157a51.062 51.062 0 0 0 20.665-23.675l.38-.888q3.393 4.176 7.1 8.078l-1.006 1.508a39.433 39.433 0 0 1 -20.245 15.46 54.993 54.993 0 0 0 -17.924 10.009 35.129 35.129 0 0 1 11.031-10.492zm38.945 11.435a52.365 52.365 0 0 1 -29.422 14.708 68.092 68.092 0 0 0 -17.914 5.148 39.131 39.131 0 0 1 20.345-15.628 55.507 55.507 0 0 0 28.035-21.1q4.345 3.6 8.99 6.835zm39.013 25.37a84.651 84.651 0 0 0 -15.387 25.422q-1.439 3.719-2.519 7.536l-.833-2.889a39.994 39.994 0 0 1 5.073-33.185 55.442 55.442 0 0 0 8.049-19.192 135.2 135.2 0 0 0 16.312 5.915 68.541 68.541 0 0 1 -10.694 16.393zm42.265 15.929a55.482 55.482 0 0 0 -5.582 19.8 35.133 35.133 0 0 1 .368-15.274 51.008 51.008 0 0 0 -2.124-31.351l-.329-.824q5.3.548 10.7.682l.344 1.723a39.425 39.425 0 0 1 -3.377 25.244zm83.949 9.933a39.955 39.955 0 0 1 -19.881-27.055 55.237 55.237 0 0 0 -7.878-19.24 135.368 135.368 0 0 0 15.7-7.4 68.72 68.72 0 0 1 4.041 19.2 85.038 85.038 0 0 0 7.1 28.87q1.613 3.632 3.539 7.077zm33.121-53.125a55 55 0 0 0 10.011 17.924 35.125 35.125 0 0 1 -10.493-11.033 51.051 51.051 0 0 0 -23.676-20.664l-.887-.38q4.176-3.393 8.078-7.1l1.507 1.006a39.429 39.429 0 0 1 15.46 20.247zm-110.67.27a120 120 0 1 1 120-120 120.136 120.136 0 0 1 -120 120zm146.994-71.336a84.641 84.641 0 0 0 25.421 15.388q3.719 1.437 7.536 2.517l-2.889.834a40 40 0 0 1 -33.185-5.073 55.462 55.462 0 0 0 -19.192-8.049 135.022 135.022 0 0 0 5.914-16.312 68.552 68.552 0 0 1 16.395 10.695zm20.457-37.045a51.022 51.022 0 0 0 -31.353 2.123l-.823.329q.548-5.294.682-10.7l1.721-.345a39.43 39.43 0 0 1 25.245 3.381 55.472 55.472 0 0 0 19.8 5.582 35.134 35.134 0 0 1 -15.272-.37zm20.169-15.389a39.435 39.435 0 0 1 -17.542-4.135 55.507 55.507 0 0 0 -34.686-4.912q-.533-5.659-1.513-11.183h14.121a52.34 52.34 0 0 1 31.2 10.4 67.688 67.688 0 0 0 16.313 9.032 39.324 39.324 0 0 1 -7.893.798z"/><path d="m233.889 288h22.111v-16h-22.111a1.889 1.889 0 0 1 -.845-3.578 26.907 26.907 0 0 0 14.956-24.199v-20.371c0-21.371-18.5-39.852-40-39.852-28.615 0-38.738 19.589-39.155 20.422l14.31 7.156-.053.1c.257-.478 6.51-11.683 24.9-11.683 12 0 24 11.061 24 23.852v20.371a10.992 10.992 0 0 1 -6.113 9.888 17.806 17.806 0 0 0 -9.038 21.381 1.987 1.987 0 0 1 -.117 1.165c-.069.148-7.158 14.864-28.133 25.935l7.469 14.15c19.192-10.13 28.993-22.989 32.991-29.423a17.789 17.789 0 0 0 4.828.686z"/><path d="m304 184c-24.922 0-38.046 18.673-38.592 19.468l13.184 9.064c.087-.125 9.073-12.532 25.408-12.532a32.546 32.546 0 0 1 25.408 12.532l13.184-9.064c-.546-.795-13.67-19.468-38.592-19.468z"/><path d="m256 336c-20.706 0-30.738 19.589-31.155 20.422l14.31 7.156c.058-.116 6.09-11.578 16.845-11.578 10.738 0 16.808 11.507 16.845 11.578l14.31-7.156c-.417-.833-10.449-20.422-31.155-20.422z"/><path d="m222.146 240.123-12.292-10.242c-.042.051-4.68 5.121-13.854 5.121-9.148 0-13.752-5.013-13.944-5.227l.09.106-12.292 10.242c.928 1.114 9.546 10.877 26.146 10.877s25.218-9.763 26.146-10.877z"/><path d="m308 235c-9.148 0-13.752-5.013-13.944-5.227l.09.106-12.292 10.242c.928 1.116 9.546 10.879 26.146 10.879s25.218-9.765 26.146-10.879l-12.292-10.242c-.042.053-4.68 5.121-13.854 5.121z"/><path d="m287.513 269.251-15.034 5.477c.5 1.386 12.691 34.094 44.991 44.862l5.06-15.18c-24.83-8.278-34.918-34.891-35.017-35.159z"/><path d="m232 304h48v16h-48z"/><path d="m272 152h16v16h-16z"/><path d="m344 256h16v16h-16z"/><path d="m152 264h16v16h-16z"/><path d="m336 288h16v16h-16z"/></g></svg>