<svg height="512" viewBox="0 0 512 512" width="512" xmlns="http://www.w3.org/2000/svg"><g id="Filled_outline" data-name="Filled outline"><rect fill="#348ed8" height="272" rx="32" width="368" x="24" y="160"/><path d="m360 432h-304a32 32 0 0 1 -32-32v-16h368v16a32 32 0 0 1 -32 32z" fill="#dfdfdd"/><path d="m264 488h-112l9.14-32 6.86-24h80l6.86 24z" fill="#d5d5d3"/><path d="m254.86 456h-93.72l6.86-24h80z" fill="#cececc"/><path d="m328 80h-240a24 24 0 0 0 -24 24v280h288v-280a24 24 0 0 0 -24-24z" fill="#85ccd5"/><path d="m104 288a103.507 103.507 0 0 0 16.509 56.244l26.936-17.316a71.93 71.93 0 0 1 -1.951-74.646l-27.805-15.888a103.52 103.52 0 0 0 -13.689 51.606z" fill="#4db6e4"/><path d="m208 216v-32a103.961 103.961 0 0 0 -90.311 52.394l27.805 15.888a71.955 71.955 0 0 1 62.506-36.282z" fill="#348ed8"/><path d="m208 184v32a71.955 71.955 0 0 1 62.506 36.282l27.805-15.888a103.961 103.961 0 0 0 -90.311-52.394z" fill="#2b83cc"/><path d="m270.506 252.282a71.93 71.93 0 0 1 -1.951 74.646l26.936 17.316a104.089 104.089 0 0 0 2.82-107.85z" fill="#266ba3"/><circle cx="208" cy="288" fill="#d65246" r="24"/><path d="m376 24 23.19 25.453 32.81-10.448 7.357 33.638 33.638 7.357-10.448 32.81 25.453 23.19-25.453 23.19 10.448 32.81-33.638 7.357-7.357 33.638-32.81-10.448-23.19 25.453-23.19-25.453-32.81 10.448-7.357-33.638-33.638-7.357 10.448-32.81-25.453-23.19 25.453-23.19-10.448-32.81 33.638-7.357 7.357-33.638 32.81 10.448z" fill="#d65246"/><path d="m392 120v-24a16 16 0 0 0 -16-16h-16v32l-32 16v56h88a8 8 0 0 0 8-8v-48a8 8 0 0 0 -8-8z" fill="#4db6e4"/><path d="m64 360h288v24h-288z" fill="#7fc6ce"/><path d="m24 360h40v24h-40z" fill="#3289d1"/><path d="m352 360h40v24h-40z" fill="#3289d1"/><path d="m384 376h-352v-184a23.865 23.865 0 0 1 11.522-20.506l-8.335-13.656a39.747 39.747 0 0 0 -19.187 34.162v208a40.045 40.045 0 0 0 40 40h109.394l-11.429 40h-25.965v16h160v-16h-25.965l-11.429-40h61.394v-16h-256a24.027 24.027 0 0 1 -24-24v-8h352v8a24.028 24.028 0 0 1 -24 24h-32v16h32a40.045 40.045 0 0 0 40-40v-128h-16zm-150.034 64 11.428 40h-74.788l11.428-40zm126.034-184v104h-16v-104zm-288 104h-16v-248a32.036 32.036 0 0 1 32-32h168v16h-168a16.019 16.019 0 0 0 -16 16zm32-248v16h-16v-16zm32 0v16h-16v-16zm32 0v16h-16v-16zm-80 32h152v16h-152zm164.3 58.811 7.4-14.188a112.021 112.021 0 0 0 -145.917 159.953 8 8 0 0 0 11.052 2.4l26.936-17.317a8 8 0 0 0 2.4-11.061 63.928 63.928 0 0 1 -1.737-66.334 63.961 63.961 0 0 1 106.7-6.7l-35.48 20.275a24.015 24.015 0 1 0 7.951 13.884l35.482-20.276a63.911 63.911 0 0 1 -5.257 59.153 8 8 0 0 0 2.4 11.062l26.936 17.317a8 8 0 0 0 11.052-2.4 111.924 111.924 0 0 0 -16.678-141.392l-11.078 11.545a96.409 96.409 0 0 1 12.638 14.851l-13.971 7.984a80.319 80.319 0 0 0 -57.129-33.167v-16.078a94.567 94.567 0 0 1 36.3 10.489zm-44.3 93.189a8 8 0 1 1 8-8 8.009 8.009 0 0 1 -8 8zm84.813 37.012-13.533-8.7a79.955 79.955 0 0 0 1.8-68.856l13.971-7.983a96.174 96.174 0 0 1 -2.234 85.539zm-169.626 0a96.174 96.174 0 0 1 -2.234-85.539l13.971 7.984a79.949 79.949 0 0 0 1.8 68.855zm19.685-91.442-13.97-7.983a96.391 96.391 0 0 1 71.098-41.251v16.064a80.318 80.318 0 0 0 -57.128 33.17zm353.128-105.57a8 8 0 0 0 -2.612-5.914l-21.662-19.736 8.892-27.922a8 8 0 0 0 -5.918-10.243l-28.627-6.261-6.258-28.624a8 8 0 0 0 -10.243-5.914l-27.922 8.888-19.736-21.662a8 8 0 0 0 -11.828 0l-19.736 21.662-27.922-8.892a8 8 0 0 0 -10.243 5.918l-6.262 28.628-28.623 6.257a8 8 0 0 0 -5.914 10.243l8.892 27.922-21.662 19.736a8 8 0 0 0 0 11.828l21.662 19.736-8.892 27.922a8 8 0 0 0 5.914 10.243l28.627 6.261 6.262 28.628a8 8 0 0 0 10.243 5.914l27.922-8.892 19.736 21.662a8 8 0 0 0 11.828 0l19.736-21.662 27.922 8.892a8 8 0 0 0 10.243-5.914l6.262-28.628 28.627-6.261a8 8 0 0 0 5.914-10.243l-8.892-27.922 21.662-19.736a8 8 0 0 0 2.608-5.914zm-38.841 17.276a8 8 0 0 0 -2.235 8.342l7.784 24.443-25.06 5.48a8 8 0 0 0 -6.106 6.106l-5.481 25.061-24.443-7.784a8.007 8.007 0 0 0 -8.341 2.235l-17.277 18.962-17.277-18.962a8 8 0 0 0 -8.341-2.235l-24.443 7.784-5.481-25.061a8 8 0 0 0 -6.106-6.106l-25.06-5.48 7.784-24.443a8 8 0 0 0 -2.235-8.342l-18.963-17.276 18.963-17.276a8 8 0 0 0 2.235-8.342l-7.784-24.443 25.06-5.48a8 8 0 0 0 6.106-6.106l5.481-25.061 24.443 7.784a8 8 0 0 0 8.341-2.235l17.277-18.962 17.277 18.962a8.005 8.005 0 0 0 8.341 2.235l24.443-7.784 5.481 25.061a8 8 0 0 0 6.106 6.106l25.06 5.48-7.784 24.443a8 8 0 0 0 2.235 8.342l18.963 17.276zm-41.159-41.276h-16v-16a24.028 24.028 0 0 0 -24-24h-16a8 8 0 0 0 -8 8v27.056l-27.578 13.789a8 8 0 0 0 -4.422 7.155v56a8 8 0 0 0 8 8h88a16.019 16.019 0 0 0 16-16v-48a16.019 16.019 0 0 0 -16-16zm0 64h-80v-43.056l27.578-13.789a8 8 0 0 0 4.422-7.155v-24h8a8.009 8.009 0 0 1 8 8v24a8 8 0 0 0 8 8h24zm-296 16h-32v-16h32zm-32 16h16v16h-16z"/></g></svg>